# xmcd
#
# Track frame offsets:
# 150
# 12585
# 23829
# 37597
# 50918
# 62112
# 73689
# 86242
# 103457
# 118796
# 136570
# 149609
# 165926
# 178990
# 197732
# 215679
# 233348
# 246824
# 260181
# 275014
#
# Disc length: 3882 seconds
#
#
# Revision: 0
# Processed by: cddbd v1.5.1PL0 Copyright (c) Steve Scherf et al.
# Submitted via: FreeRIP 2.93 
#
DISCID=320f2814
DTITLE=Classic Country - Great Duets
DYEAR=2004
DGENRE=Country
TTITLE0=Jackson - Johnny Cash with June Carter
TTITLE1=Louisiana Woman, Mississippi Man - Loretta Lynn with Conway Twitty
TTITLE2=Golden Ring - George Jones with Tammy Wynette
TTITLE3=Don't Let Me Cross Over - Carl Butler and Pearl Butler
TTITLE4=Holding On To Nothing - Porter Wagoner with Dolly Parton
TTITLE5=Loose Talk - Buck Owens with Rose Maddox
TTITLE6=For Loving You - Bill Anderson with Jan Howard
TTITLE7=We've Got Tonight - Kenny Rogers with Sheena Easton
TTITLE8=You're the Reason God Made Oklahoma - David Frizzell with Shelly West
TTITLE9=Suspicious Minds - Waylon Jennings with Jessi Colter
TTITLE10=My elusive Dreams - David Houston with Tammy Wynette
TTITLE11=A Place to Fall Apart - Merle Haggard with Janie Fricke
TTITLE12=Feelins' - Conway Twitty with Loretta Lynn
TTITLE13=Islands in the Stream - Kenny Rogers with Dolly Parton
TTITLE14=You and I - Eddie Rabbitt with Crystal Gayle
TTITLE15=Meet Me in Montana - Marie Osmond with Dan Seals
TTITLE16=If I Were a Carpenter - Jonny Cash with June Carter Cash
TTITLE17=We're Gonna Hold On - George Jones with Tammy Wunette
TTITLE18=I Will Always Love You - Dolly Parton with Vince Gill
TTITLE19=We Believe in Happy Endings - Earl Thomas Conley with Emmylou Harris
EXTD=
EXTT0=
EXTT1=
EXTT2=
EXTT3=
EXTT4=
EXTT5=
EXTT6=
EXTT7=
EXTT8=
EXTT9=
EXTT10=
EXTT11=
EXTT12=
EXTT13=
EXTT14=
EXTT15=
EXTT16=
EXTT17=
EXTT18=
EXTT19=
PLAYORDER=
